<svg xmlns:dc="http://purl.org/dc/elements/1.1/" xmlns:cc="http://creativecommons.org/ns#" xmlns:rdf="http://www.w3.org/1999/02/22-rdf-syntax-ns#" xmlns:svg="http://www.w3.org/2000/svg" xmlns="http://www.w3.org/2000/svg" xmlns:xlink="http://www.w3.org/1999/xlink" id="svg210776" viewBox="0 0 1024 768" height="768px" width="1024px" version="1.1">
  <metadata id="metadata210782">
    <rdf:rdf>
      <cc:work rdf:about="">
        <dc:format>image/svg+xml</dc:format>
        <dc:type rdf:resource="http://purl.org/dc/dcmitype/StillImage"></dc:type>
      </cc:work>
    </rdf:rdf>
  </metadata>
  <defs id="defs210780"></defs>
  <linearGradient spreadMethod="pad" y2="30%" x2="-10%" y1="120%" x1="30%" id="3d_gradient2-logo-597b5561-ef53-4331-95a4-536da281bbfe">
    <stop id="stop210757" stop-opacity="1" stop-color="#ffffff" offset="0%"></stop>
    <stop id="stop210759" stop-opacity="1" stop-color="#000000" offset="100%"></stop>
  </linearGradient>
  <linearGradient gradientTransform="rotate(-30)" spreadMethod="pad" y2="30%" x2="-10%" y1="120%" x1="30%" id="3d_gradient3-logo-597b5561-ef53-4331-95a4-536da281bbfe">
    <stop id="stop210762" stop-opacity="1" stop-color="#ffffff" offset="0%"></stop>
    <stop id="stop210764" stop-opacity="1" stop-color="#cccccc" offset="50%"></stop>
    <stop id="stop210766" stop-opacity="1" stop-color="#000000" offset="100%"></stop>
  </linearGradient>
  <g id="logo-group">
    <image xlink:href="" id="container" x="272" y="144" width="480" height="480" style="display: none;" transform="translate(0 0)"></image>
    <g id="logo-center" transform="translate(0 0)">
      <image xlink:href="" id="icon_container" x="0" y="0" style="display: none;"></image>
      <g id="slogan" style="font-style:normal;font-weight:200;font-size:32px;line-height:1;font-family:Roboto;font-variant-ligatures:none;text-align:center;text-anchor:middle" transform="translate(0 0)"></g>
      <g id="title" style="font-style:normal;font-weight:normal;font-size:72px;line-height:1;font-family:'Brandmark Sans 10';font-variant-ligatures:normal;text-align:center;text-anchor:middle" transform="translate(0 0)">
        <path id="path210785" style="font-style:normal;font-weight:normal;font-size:72px;line-height:1;font-family:'Brandmark Sans 10';font-variant-ligatures:normal;text-align:center;text-anchor:middle" d="m 516.041,-50.4 h -18 c -1.584,0 -2.952,1.368 -2.952,2.952 0,1.656 1.368,3.024 2.952,3.024 h 18 c 4.896,0 8.928,3.96 8.928,8.856 0,4.896 -4.032,8.928 -8.928,8.928 h -18 c -1.584,0 -2.952,1.296 -2.952,2.952 v 20.736 c 0,1.584 1.368,2.952 2.952,2.952 1.656,0 3.024,-1.368 3.024,-2.952 v -17.712 h 14.976 c 8.208,0 14.904,-6.696 14.904,-14.904 0,-8.136 -6.696,-14.832 -14.904,-14.832 z" stroke-width="0" stroke-linejoin="miter" stroke-miterlimit="2" fill="#5205f8" stroke="#5205f8" transform="translate(0 359.2) translate(458.216 -50.79999999999999) scale(3) translate(-495.089 50.4)"></path>
      </g>
      <image xlink:href="" id="icon" x="0" y="0" style="display: none;"></image>
    </g>
  </g>
</svg>