<svg xmlns:dc="http://purl.org/dc/elements/1.1/" xmlns:cc="http://creativecommons.org/ns#" xmlns:rdf="http://www.w3.org/1999/02/22-rdf-syntax-ns#" xmlns:svg="http://www.w3.org/2000/svg" xmlns="http://www.w3.org/2000/svg" xmlns:xlink="http://www.w3.org/1999/xlink" id="svg108077" viewBox="0 0 1024 768" height="768px" width="1024px" version="1.1">
  <metadata id="metadata108083">
    <rdf:rdf>
      <cc:work rdf:about="">
        <dc:format>image/svg+xml</dc:format>
        <dc:type rdf:resource="http://purl.org/dc/dcmitype/StillImage"></dc:type>
      </cc:work>
    </rdf:rdf>
  </metadata>
  <defs id="defs108081"></defs>
  <linearGradient spreadMethod="pad" y2="30%" x2="-10%" y1="120%" x1="30%" id="3d_gradient2-logo-54de3c3a-5be3-422a-9329-6195bc8d95ff">
    <stop id="stop108058" stop-opacity="1" stop-color="#ffffff" offset="0%"></stop>
    <stop id="stop108060" stop-opacity="1" stop-color="#000000" offset="100%"></stop>
  </linearGradient>
  <linearGradient gradientTransform="rotate(-30)" spreadMethod="pad" y2="30%" x2="-10%" y1="120%" x1="30%" id="3d_gradient3-logo-54de3c3a-5be3-422a-9329-6195bc8d95ff">
    <stop id="stop108063" stop-opacity="1" stop-color="#ffffff" offset="0%"></stop>
    <stop id="stop108065" stop-opacity="1" stop-color="#cccccc" offset="50%"></stop>
    <stop id="stop108067" stop-opacity="1" stop-color="#000000" offset="100%"></stop>
  </linearGradient>
  <g id="logo-group">
    <image xlink:href="" id="container" x="272" y="144" width="480" height="480" style="display: none;" transform="translate(0 0)"></image>
    <g id="logo-center" transform="translate(1.1368683772161603e-13 0)">
      <image xlink:href="" id="icon_container" x="0" y="0" style="display: none;"></image>
      <g id="slogan" style="font-style:normal;font-weight:400;font-size:32px;line-height:1;font-family:Questrial;font-variant-ligatures:none;text-align:center;text-anchor:middle" transform="translate(0 0)"></g>
      <g id="title" style="font-style:normal;font-weight:300;font-size:72px;line-height:1;font-family:'Montserrat Light Alt1';font-variant-ligatures:none;text-align:center;text-anchor:middle" transform="translate(0 0)">
        <path id="path108086" style="font-style:normal;font-weight:300;font-size:72px;line-height:1;font-family:'Montserrat Light Alt1';font-variant-ligatures:none;text-align:center;text-anchor:middle" d="m 388.10375,-45.864 c -3.6,-3.024 -8.568,-4.536 -14.904,-4.536 h -18.072 v 3.312 h 18.072 c 5.328,0 9.432,1.224 12.312,3.6 2.808,2.376 4.248,5.76 4.248,10.08 0,4.392 -1.44,7.776 -4.248,10.08 -2.88,2.376 -6.984,3.528 -12.312,3.528 h -18.072 V 0 h 3.672 v -16.488 h 14.4 c 6.336,0 11.304,-1.44 14.904,-4.464 3.6,-3.024 5.4,-7.128 5.4,-12.456 0,-5.256 -1.8,-9.432 -5.4,-12.456 z" stroke-width="2.3" stroke-linejoin="miter" stroke-miterlimit="2" fill="#0085f4" stroke="#0085f4" transform="translate(0 323.668) translate(266.2701745999999 20.264000000000003) scale(1.59) translate(-355.12775 50.4)"></path>
        <path id="path108088" style="font-style:normal;font-weight:300;font-size:72px;line-height:1;font-family:'Montserrat Light Alt1';font-variant-ligatures:none;text-align:center;text-anchor:middle" d="m 446.93337,-50.4 h -3.672 v 23.184 H 409.56538 V -50.4 h -3.67201 V 0 h 3.67201 v -23.976 h 33.69599 V 0 h 3.672 z" stroke-width="2.3" stroke-linejoin="miter" stroke-miterlimit="2" fill="#228df1" stroke="#228df1" transform="translate(0 323.668) translate(345.23851039999994 20.264000000000003) scale(1.59) translate(-405.89337 50.4)"></path>
        <path id="path108090" style="font-style:normal;font-weight:300;font-size:72px;line-height:1;font-family:'Montserrat Light Alt1';font-variant-ligatures:none;text-align:center;text-anchor:middle" d="M 464.534,-50.4 V 0 h 32.688 V -3.312 H 468.206 V -50.4 Z" stroke-width="2.3" stroke-linejoin="miter" stroke-miterlimit="2" fill="#4496ed" stroke="#4496ed" transform="translate(0 323.668) translate(436.72811209999986 20.264000000000003) scale(1.59) translate(-464.534 50.4)"></path>
        <path id="path108092" style="font-style:normal;font-weight:300;font-size:72px;line-height:1;font-family:'Montserrat Light Alt1';font-variant-ligatures:none;text-align:center;text-anchor:middle" d="M 506.7215,-50.4 V 0 h 3.672 v -50.4 z" stroke-width="2.3" stroke-linejoin="miter" stroke-miterlimit="2" fill="#669eea" stroke="#669eea" transform="translate(0 323.668) translate(502.0572370999999 20.264000000000003) scale(1.59) translate(-506.7215 50.4)"></path>
        <path id="path108094" style="font-style:normal;font-weight:300;font-size:72px;line-height:1;font-family:'Montserrat Light Alt1';font-variant-ligatures:none;text-align:center;text-anchor:middle" d="m 560.93187,-45.864 c -3.6,-3.024 -8.568,-4.536 -14.904,-4.536 h -18.072 v 3.312 h 18.072 c 5.328,0 9.432,1.224 12.312,3.6 2.808,2.376 4.248,5.76 4.248,10.08 0,4.392 -1.44,7.776 -4.248,10.08 -2.88,2.376 -6.984,3.528 -12.312,3.528 h -18.072 V 0 h 3.67201 v -16.488 h 14.39999 c 6.336,0 11.304,-1.44 14.904,-4.464 3.60001,-3.024 5.4,-7.128 5.4,-12.456 0,-5.256 -1.79999,-9.432 -5.4,-12.456 z" stroke-width="2.3" stroke-linejoin="miter" stroke-miterlimit="2" fill="#50a7f1" stroke="#50a7f1" transform="translate(0 323.668) translate(534.0708853999998 20.264000000000003) scale(1.59) translate(-527.95587 50.4)"></path>
        <path id="path108096" style="font-style:normal;font-weight:300;font-size:72px;line-height:1;font-family:'Montserrat Light Alt1';font-variant-ligatures:none;text-align:center;text-anchor:middle" d="m 622.0655,-38.16 c -2.304,-3.816 -5.472,-6.768 -9.504,-9 -4.032,-2.16 -8.712,-3.24 -13.896,-3.24 h -19.944 v 3.312 h 19.656 c 4.608,0 8.712,0.936 12.312,2.808 3.528,1.872 6.264,4.464 8.208,7.704 1.872,3.312 2.88,7.128 2.88,11.376 0,4.32 -1.008,8.064 -2.88,11.376 -1.944,3.312 -4.68,5.904 -8.208,7.776 -3.6,1.872 -7.704,2.736 -12.312,2.736 h -15.984 V -25.2 h -3.672 V 0 h 19.944 c 5.184,0 9.864,-1.08 13.896,-3.24 4.032,-2.16 7.2,-5.112 9.504,-8.928 2.232,-3.816 3.384,-8.136 3.384,-13.032 0,-4.824 -1.152,-9.144 -3.384,-12.96 z" stroke-width="2.3" stroke-linejoin="miter" stroke-miterlimit="2" fill="#3baff8" stroke="#3baff8" transform="translate(0 323.668) translate(613.0392370999998 20.264000000000003) scale(1.59) translate(-578.7215 50.4)"></path>
        <path id="path108098" style="font-style:normal;font-weight:300;font-size:72px;line-height:1;font-family:'Montserrat Light Alt1';font-variant-ligatures:none;text-align:center;text-anchor:middle" d="m 670.82187,-27.216 h -32.616 v 3.24 h 32.616 z m 0,-23.184 h -32.616 v 3.312 h 32.616 z m -32.616,47.088 V 0 h 32.616 v -3.312 z" stroke-width="2.3" stroke-linejoin="miter" stroke-miterlimit="2" fill="#25b8ff" stroke="#25b8ff" transform="translate(0 323.668) translate(705.8703853999999 20.264000000000003) scale(1.59) translate(-638.20587 50.4)"></path>
      </g>
      <image xlink:href="" id="icon" x="0" y="0" style="display: none;"></image>
    </g>
  </g>
</svg>